<svg width="109" height="137" viewBox="0 0 109 137" fill="none" xmlns="http://www.w3.org/2000/svg">
<path d="M2.51276 2.5C2.51276 2.5 2.51299 2.75154 2.5134 3.22516C2.51994 10.6709 2.57274 73.0025 2.50907 75.6798C2.47677 77.0378 2.53611 79.6341 2.54319 82.6928C2.55394 87.3381 2.75455 93.1612 4.78045 98.2112C5.89888 100.999 7.27001 104.608 9.38367 108.225C13.6196 115.473 20.0363 122.455 26.4973 126.47C28.2939 127.587 30.1146 128.603 31.5107 129.335C38.0898 132.786 42.2998 133.676 52.1601 133.938C64.9235 134.277 74.3598 131.411 81.1406 126.651C83.5318 124.972 87.1762 122.672 90.0009 120.008C95.1862 115.118 99.4914 109.144 101.508 104.541C103.348 100.342 104.937 95.1727 105.629 89.0726C106.109 84.8433 105.968 80.3544 105.968 74.6555L106.032 2.5213L2.51276 2.5Z" stroke="#0F2A3D" stroke-width="5" stroke-linejoin="bevel"/>
<mask id="path-2-inside-1_239_37" fill="white">
<path d="M106.031 1.29874L107.273 2.52519L107.264 1.3004L106.031 1.29874Z"/>
</mask>
<path d="M106.031 1.29874L107.273 2.52519L107.264 1.3004L106.031 1.29874Z" fill="#0F2A3D"/>
<path d="M106.031 1.29874L106.038 -3.70125L93.8345 -3.71771L102.518 4.8565L106.031 1.29874ZM107.273 2.52519L103.76 6.08295L112.361 14.5761L112.273 2.48883L107.273 2.52519ZM107.264 1.3004L112.264 1.26404L112.228 -3.69291L107.271 -3.69959L107.264 1.3004ZM106.031 1.29874L102.518 4.8565L103.76 6.08295L107.273 2.52519L110.786 -1.03257L109.544 -2.25902L106.031 1.29874ZM107.273 2.52519L112.273 2.48883L112.264 1.26404L107.264 1.3004L102.264 1.33677L102.273 2.56156L107.273 2.52519ZM107.264 1.3004L107.271 -3.69959L106.038 -3.70125L106.031 1.29874L106.024 6.29874L107.257 6.3004L107.264 1.3004Z" fill="#0F2A3D" mask="url(#path-2-inside-1_239_37)"/>
<mask id="path-4-inside-2_239_37" fill="white">
<path d="M2.51497 1.27699L1.27295 2.50344L1.28185 1.27866L2.51497 1.27699Z"/>
</mask>
<path d="M2.51497 1.27699L1.27295 2.50344L1.28185 1.27866L2.51497 1.27699Z" fill="#0F2A3D"/>
<path d="M2.51497 1.27699L6.02813 4.83475L14.7112 -3.73946L2.50823 -3.723L2.51497 1.27699ZM1.27295 2.50344L-3.72692 2.4671L-3.81479 14.5543L4.78611 6.06121L1.27295 2.50344ZM1.28185 1.27866L1.27511 -3.72134L-3.68198 -3.71465L-3.71802 1.24231L1.28185 1.27866ZM2.51497 1.27699L-0.998197 -2.28077L-2.24022 -1.05432L1.27295 2.50344L4.78611 6.06121L6.02813 4.83475L2.51497 1.27699ZM1.27295 2.50344L6.27282 2.53979L6.28172 1.315L1.28185 1.27866L-3.71802 1.24231L-3.72692 2.4671L1.27295 2.50344ZM1.28185 1.27866L1.2886 6.27865L2.52171 6.27699L2.51497 1.27699L2.50823 -3.723L1.27511 -3.72134L1.28185 1.27866Z" fill="#0F2A3D" mask="url(#path-4-inside-2_239_37)"/>
<mask id="path-6-inside-3_239_37" fill="white">
<path d="M79.3407 42.2716L81.2054 42.3031L48.7281 127.407L46.7686 127.304L79.3407 42.2716Z"/>
</mask>
<path d="M79.3407 42.2716L81.2054 42.3031L48.7281 127.407L46.7686 127.304L79.3407 42.2716Z" fill="#0F2A3D"/>
<path d="M79.3407 42.2716L79.4044 38.4926L76.758 38.448L75.8113 40.9197L79.3407 42.2716ZM81.2054 42.3031L84.7366 43.6506L86.6583 38.6149L81.2691 38.5241L81.2054 42.3031ZM48.7281 127.407L48.5285 131.182L51.2777 131.327L52.2593 128.755L48.7281 127.407ZM46.7686 127.304L43.2391 125.952L41.3806 130.804L46.569 131.078L46.7686 127.304ZM79.3407 42.2716L79.277 46.0506L81.1418 46.082L81.2054 42.3031L81.2691 38.5241L79.4044 38.4926L79.3407 42.2716ZM81.2054 42.3031L77.6743 40.9555L45.197 126.06L48.7281 127.407L52.2593 128.755L84.7366 43.6506L81.2054 42.3031ZM48.7281 127.407L48.9277 123.633L46.9682 123.529L46.7686 127.304L46.569 131.078L48.5285 131.182L48.7281 127.407ZM46.7686 127.304L50.298 128.656L82.8701 43.6236L79.3407 42.2716L75.8113 40.9197L43.2391 125.952L46.7686 127.304Z" fill="#0F2A3D" fill-opacity="0.4" mask="url(#path-6-inside-3_239_37)"/>
<mask id="path-8-inside-4_239_37" fill="white">
<path d="M73.852 42.2978L75.7626 42.284L43.1668 126.645L41.7183 126.408L73.852 42.2978Z"/>
</mask>
<path d="M73.852 42.2978L75.7626 42.284L43.1668 126.645L41.7183 126.408L73.852 42.2978Z" fill="#0F2A3D"/>
<path d="M73.852 42.2978L73.8248 38.5184L71.2429 38.537L70.3214 40.9489L73.852 42.2978ZM75.7626 42.284L79.2881 43.6462L81.2902 38.4646L75.7353 38.5046L75.7626 42.284ZM43.1668 126.645L42.5554 130.375L45.5856 130.872L46.6923 128.007L43.1668 126.645ZM41.7183 126.408L38.1876 125.059L36.5338 129.388L41.1068 130.138L41.7183 126.408ZM73.852 42.2978L73.8793 46.0772L75.7898 46.0634L75.7626 42.284L75.7353 38.5046L73.8248 38.5184L73.852 42.2978ZM75.7626 42.284L72.2371 40.9218L39.6413 125.283L43.1668 126.645L46.6923 128.007L79.2881 43.6462L75.7626 42.284ZM43.1668 126.645L43.7782 122.916L42.3297 122.678L41.7183 126.408L41.1068 130.138L42.5554 130.375L43.1668 126.645ZM41.7183 126.408L45.2489 127.757L77.3827 43.6466L73.852 42.2978L70.3214 40.9489L38.1876 125.059L41.7183 126.408Z" fill="#0F2A3D" fill-opacity="0.4" mask="url(#path-8-inside-4_239_37)"/>
<mask id="path-10-inside-5_239_37" fill="white">
<path d="M68.4066 42.2856L70.2651 42.2858L38.3287 125.28L36.7886 124.816L68.4066 42.2856Z"/>
</mask>
<path d="M68.4066 42.2856L70.2651 42.2858L38.3287 125.28L36.7886 124.816L68.4066 42.2856Z" fill="#0F2A3D"/>
<path d="M68.4066 42.2856L68.407 38.5061L65.8073 38.5058L64.8772 40.9335L68.4066 42.2856ZM70.2651 42.2858L73.7925 43.6431L75.769 38.5069L70.2656 38.5063L70.2651 42.2858ZM38.3287 125.28L37.2398 128.899L40.597 129.909L41.8561 126.637L38.3287 125.28ZM36.7886 124.816L33.2592 123.464L31.8037 127.263L35.6996 128.436L36.7886 124.816ZM68.4066 42.2856L68.4062 46.0651L70.2647 46.0653L70.2651 42.2858L70.2656 38.5063L68.407 38.5061L68.4066 42.2856ZM70.2651 42.2858L66.7378 40.9284L34.8014 123.922L38.3287 125.28L41.8561 126.637L73.7925 43.6431L70.2651 42.2858ZM38.3287 125.28L39.4177 121.661L37.8775 121.197L36.7886 124.816L35.6996 128.436L37.2398 128.899L38.3287 125.28ZM36.7886 124.816L40.318 126.169L71.936 43.6377L68.4066 42.2856L64.8772 40.9335L33.2592 123.464L36.7886 124.816Z" fill="#0F2A3D" fill-opacity="0.4" mask="url(#path-10-inside-5_239_37)"/>
<mask id="path-12-inside-6_239_37" fill="white">
<path d="M62.7789 42.2838L64.8666 42.284L33.8424 123.13L32.2158 122.262L62.7789 42.2838Z"/>
</mask>
<path d="M62.7789 42.2838L64.8666 42.284L33.8424 123.13L32.2158 122.262L62.7789 42.2838Z" fill="#0F2A3D"/>
<path d="M62.7789 42.2838L62.7793 38.5043L60.1773 38.504L59.2484 40.9346L62.7789 42.2838ZM64.8666 42.284L68.3952 43.6381L70.365 38.505L64.8669 38.5045L64.8666 42.284ZM33.8424 123.13L32.0627 126.464L35.8379 128.479L37.371 124.484L33.8424 123.13ZM32.2158 122.262L28.6853 120.913L27.4954 124.027L30.4361 125.596L32.2158 122.262ZM62.7789 42.2838L62.7785 46.0633L64.8662 46.0635L64.8666 42.284L64.8669 38.5045L62.7793 38.5043L62.7789 42.2838ZM64.8666 42.284L61.3379 40.9299L30.3137 121.776L33.8424 123.13L37.371 124.484L68.3952 43.6381L64.8666 42.284ZM33.8424 123.13L35.622 119.796L33.9955 118.928L32.2158 122.262L30.4361 125.596L32.0627 126.464L33.8424 123.13ZM32.2158 122.262L35.7463 123.611L66.3095 43.633L62.7789 42.2838L59.2484 40.9346L28.6853 120.913L32.2158 122.262Z" fill="#0F2A3D" fill-opacity="0.4" mask="url(#path-12-inside-6_239_37)"/>
<path d="M29.8939 120.614C30.2546 120.593 30.7756 120.04 30.8894 119.732C32.8576 114.405 47.2258 76.084 47.2258 76.084C47.2258 76.084 48.211 74.2399 47.3558 69.3593C46.5005 64.4788 45.686 55.5698 45.6007 54.1748C45.5572 53.4634 44.131 53.5174 43.0248 54.0373C42.0385 54.5008 41.4524 55.0568 41.0445 55.5875C38.2168 59.2667 36.0828 60.8576 35.2887 67.7867C34.4945 74.7158 34.5624 75.6656 34.5624 75.6656C34.5624 75.6656 33.1613 73.9945 32.6008 69.8353C31.9594 65.0753 29.974 62.1831 28.8133 62.4844C28.6251 62.5333 27.9272 62.5845 27.7554 62.9776C26.8678 65.0087 27.2309 71.388 25.7589 73.812C23.2284 78.8005 23.7645 83.1745 24.4566 88.2477C23.5879 87.4663 22.2071 82.0276 21.4217 79.9579C20.3415 77.1113 17.9323 74.726 16.2292 74.7761C14.9952 74.8124 15.236 77.9638 14.8592 81.2967C14.6111 83.491 13.8357 85.764 13.1137 87.2787C11.1894 91.3156 10.0287 104.662 18.9782 112.314C27.1194 119.275 26.3612 119.365 29.0302 120.418C29.291 120.521 29.5547 120.634 29.8939 120.614Z" fill="#0F2A3D"/>
<path d="M35.5605 75.6037C35.5606 75.613 35.5615 75.6176 35.5615 75.6184L35.7803 78.6741L33.7959 76.3078L34.5625 75.6653C33.8609 76.2535 33.8012 76.303 33.7959 76.3069H33.7949L33.793 76.3049C33.792 76.3038 33.7911 76.3024 33.79 76.301C33.7876 76.2981 33.7853 76.294 33.7822 76.2903C33.7762 76.2828 33.7683 76.2738 33.7598 76.2629C33.7426 76.2411 33.7206 76.2119 33.6943 76.176C33.6418 76.1042 33.5715 76.0044 33.4893 75.8743C33.3243 75.6133 33.1089 75.232 32.8789 74.719C32.4185 73.6919 31.9021 72.1414 31.6094 69.969C31.302 67.6883 30.6777 65.902 30.0303 64.7532C29.7037 64.1736 29.3968 63.8005 29.1602 63.6008C29.0659 63.5213 29.0031 63.4872 28.9707 63.4719C28.9424 63.4777 28.9177 63.4844 28.9004 63.4875C28.8502 63.4967 28.8238 63.5014 28.7783 63.51C28.7123 63.5224 28.6555 63.5355 28.6064 63.5491C28.4778 63.927 28.3666 64.5148 28.2686 65.3088C28.1571 66.2119 28.076 67.2422 27.9717 68.342C27.8692 69.4218 27.7453 70.5508 27.5488 71.5715C27.3613 72.5456 27.0888 73.5112 26.6494 74.2639L26.6504 74.2649C24.2755 78.9468 24.7541 83.0313 25.4473 88.1125L25.8164 90.8157L23.7881 88.9914C23.5458 88.7735 23.3627 88.4753 23.2285 88.2258C23.0821 87.9537 22.9386 87.6323 22.7998 87.2893C22.5216 86.6019 22.2337 85.7549 21.9561 84.8918C21.3856 83.1183 20.8676 81.3174 20.4863 80.3127C19.9969 79.023 19.2033 77.8355 18.3535 76.9895C17.5764 76.2159 16.8924 75.8611 16.4453 75.7893C16.3608 76.001 16.2805 76.362 16.2158 76.9162C16.1489 77.4891 16.107 78.1661 16.0566 78.9416C16.007 79.7057 15.9497 80.5497 15.8525 81.4094C15.5894 83.7364 14.7755 86.1172 14.0166 87.7092C13.1578 89.511 12.3893 93.6535 12.9609 98.3186C13.5287 102.951 15.3985 107.938 19.6279 111.554C23.6993 115.035 25.5908 116.838 26.7178 117.831C27.2865 118.333 27.6449 118.615 28.002 118.834C28.3573 119.053 28.7454 119.23 29.3975 119.488C29.5767 119.558 29.6694 119.59 29.7324 119.605C29.7503 119.59 29.7741 119.576 29.7969 119.554C29.85 119.504 29.8973 119.449 29.9316 119.403C29.947 119.382 29.9559 119.366 29.9609 119.358C30.9634 116.646 35.0348 105.77 38.8594 95.5598C40.7784 90.4367 42.6359 85.4798 44.0137 81.8039C44.7026 79.966 45.2712 78.4481 45.668 77.3899C45.8663 76.8608 46.0222 76.4463 46.1279 76.1643C46.1807 76.0235 46.2208 75.9156 46.248 75.843C46.2616 75.8068 46.2724 75.7794 46.2793 75.761C46.2828 75.7518 46.2854 75.7441 46.2871 75.7395C46.2879 75.7374 46.2887 75.7357 46.2891 75.7346V75.7336V75.7327L46.3125 75.6711L46.3398 75.6194C46.3413 75.6159 46.3427 75.6115 46.3447 75.6067C46.3581 75.575 46.3828 75.5126 46.4131 75.4172C46.4736 75.2264 46.5578 74.9016 46.6201 74.4231C46.7447 73.4658 46.7838 71.8864 46.3711 69.5315C45.5682 64.9493 44.8061 56.8967 44.6328 54.6448C44.3124 54.65 43.8618 54.7492 43.4502 54.9426C42.6203 55.3326 42.156 55.7813 41.8369 56.1965C40.348 58.1337 39.2144 59.3188 38.2725 60.9651C37.369 62.5442 36.6678 64.5362 36.2822 67.9006C35.8859 71.3583 35.7059 73.3135 35.625 74.3987C35.5845 74.9412 35.5689 75.2614 35.5635 75.4397C35.5608 75.5285 35.5604 75.5797 35.5605 75.6037ZM35.5605 75.6037C35.5605 75.6024 35.5607 75.6004 35.5605 75.5989L35.5596 75.5969L35.5605 75.6037ZM35.333 75.0276C35.334 75.0288 35.3346 75.03 35.335 75.0305C35.3346 75.0301 35.3337 75.0295 35.333 75.0285C35.3321 75.0273 35.3307 75.0257 35.3291 75.0237L35.333 75.0276Z" stroke="#0F2A3D" stroke-opacity="0.4" stroke-width="2"/>
<path d="M52.9325 126.288C52.8923 126.445 52.9193 126.576 52.999 126.684C53.3623 127.179 54.8982 127.098 56.0977 127.086C59.9747 127.046 66.817 125.894 75.2408 121.533C79.6647 119.242 82.6895 117.162 84.7105 115.772C87.9129 113.568 88.9643 112.091 91.6735 109.181C92.7108 108.066 90.9844 107.868 88.0311 106.071C85.4515 104.502 83.7233 102.215 82.7114 100.566C81.9915 99.393 81.5809 98.851 81.7245 98.7005C82.0701 98.3383 88.0084 98.9155 90.3421 98.5727C90.7717 98.5096 91.6588 97.695 90.4717 96.5063C89.7582 95.7919 88.0353 94.9644 86.5783 93.698C84.6498 92.0218 82.7954 89.6455 81.9065 88.2011C81.524 87.5795 80.9859 87.252 81.2494 87.0266C81.5301 86.7863 86.908 87.0527 87.2536 87.0266C88.2018 86.9548 89.1326 85.9188 87.6639 84.8963C86.8153 84.3054 82.8943 81.6689 80.1239 77.4903C78.877 75.6094 77.9014 73.4325 77.0858 71.2294C76.6262 69.9877 76.6413 68.9502 76.2387 67.8115C75.7963 66.5604 74.9811 66.2725 74.2633 67.0159C73.6258 67.6761 73.3517 69.0807 72.6306 70.7324C71.4342 73.4728 70.1205 77.679 68.9985 81.0453C67.4459 85.7033 67.2051 86.5062 66.2604 89.2208C63.4077 97.4184 61.4054 102.558 57.414 113.714C55.5553 118.909 53.647 123.498 52.9325 126.288Z" fill="#0F2A3D"/>
<path d="M75.0566 67.6713C75.124 67.7573 75.2119 67.9074 75.2959 68.145C75.4666 68.6277 75.5512 69.0922 75.6582 69.6655C75.7626 70.2243 75.8863 70.8685 76.1484 71.5766C76.9772 73.8153 77.9835 76.0717 79.29 78.0424C82.1763 82.3957 86.244 85.1263 87.0928 85.7172C87.2441 85.8226 87.3296 85.9086 87.3779 85.9662C87.3189 85.9994 87.2465 86.0245 87.1777 86.0297C87.1972 86.0282 87.1392 86.0298 86.9316 86.0248C86.7554 86.0206 86.5193 86.0131 86.2402 86.0043C85.685 85.9868 84.9671 85.9635 84.251 85.9467C83.537 85.93 82.8103 85.9196 82.2402 85.9291C81.9581 85.9339 81.6953 85.9433 81.4844 85.9623C81.381 85.9717 81.2659 85.9852 81.1582 86.0073C81.1048 86.0182 81.0333 86.0355 80.9561 86.0629C80.9104 86.0791 80.8146 86.1151 80.708 86.185L80.5996 86.267C80.4553 86.3905 80.3073 86.5726 80.2305 86.8227C80.1537 87.0726 80.1749 87.3026 80.2217 87.477C80.3006 87.7709 80.4804 87.9974 80.5527 88.0883C80.7815 88.3758 80.904 88.4803 81.0547 88.725C81.9884 90.2423 83.9059 92.7003 85.9219 94.4526C86.7096 95.1372 87.5597 95.695 88.2607 96.1489C89.0134 96.6361 89.5021 96.9514 89.7637 97.2133C89.9524 97.4023 90.0228 97.5338 90.0488 97.5991C88.964 97.7301 87.0979 97.6843 85.3184 97.6293C84.417 97.6015 83.5479 97.5734 82.8848 97.5756C82.5558 97.5767 82.2487 97.5856 82.001 97.6098C81.8793 97.6217 81.7418 97.6404 81.6104 97.6733C81.5456 97.6895 81.3084 97.7453 81.0918 97.9252L81.001 98.0102C80.5423 98.491 80.7268 99.0799 80.7666 99.2016C80.8315 99.3998 80.9393 99.5963 81.0293 99.7514C81.2082 100.06 81.5288 100.551 81.8594 101.089C82.913 102.806 84.7423 105.241 87.5117 106.925C88.2798 107.392 88.9655 107.755 89.5342 108.047C90.0829 108.33 90.4725 108.525 90.7598 108.696C88.1438 111.52 87.1617 112.871 84.1436 114.948C82.1311 116.332 79.148 118.384 74.7812 120.645C66.4862 124.939 59.7969 126.047 56.0879 126.085C55.4489 126.092 54.8307 126.114 54.3037 126.078C54.2018 126.071 54.112 126.058 54.0332 126.048C54.3946 124.775 54.9744 123.152 55.6816 121.252C56.4751 119.121 57.4234 116.656 58.3555 114.051C62.3356 102.927 64.3532 97.7446 67.2051 89.5492C68.1525 86.8268 68.3988 86.0075 69.9473 81.3617C71.0829 77.9546 72.3742 73.8183 73.5469 71.1323C73.9218 70.2734 74.1948 69.4425 74.415 68.851C74.6599 68.1933 74.8281 67.8702 74.9824 67.7104C75.0046 67.6874 75.0261 67.6711 75.043 67.6567C75.047 67.6615 75.0523 67.6658 75.0566 67.6713Z" stroke="#0F2A3D" stroke-opacity="0.4" stroke-width="2"/>
<path d="M61.8623 25.549L70.1397 25.7901L72.6749 20.548L67.2991 20.4878L61.8623 25.549Z" fill="#0F2A3D"/>
<path d="M69.6777 22.4038L68.9707 23.8647L66.5205 23.7934L68.0332 22.3852L69.6777 22.4038Z" stroke="#0F2A3D" stroke-opacity="0.4" stroke-width="3.77953"/>
<path d="M60.688 32.9815L66.217 38.9889H71.8325L69.9319 33.365C69.9319 33.365 79.9309 32.7637 81.2492 32.6726C81.7976 32.6347 82.1669 33.0097 82.7495 33.4852C83.63 34.2036 84.6616 35.0266 84.6616 35.0266L88.9812 34.9733L87.4478 31.8418L89.4672 30.9471L91.9873 19.3626L88.1956 19.3584L81.6379 26.9954C81.6379 26.9954 64.9643 26.2072 62.4158 26.1646C60.0341 26.1248 51.3703 25.8989 45.7422 26.1646C43.1878 26.2852 40.0404 26.8463 38.3557 28.2097C36.6711 29.573 35.7561 30.3101 36.7793 30.7771C37.8025 31.2441 40.3614 32.6159 46.8957 32.8397C53.4932 33.0657 60.688 32.9815 60.688 32.9815Z" fill="#0F2A3D"/>
<path d="M89.6426 21.249L87.8232 29.6084L86.6826 30.1142L84.8867 30.9091L85.751 32.6728L85.9697 33.1201L85.3135 33.1279C85.2829 33.1034 85.2511 33.0777 85.2188 33.0517C84.8526 32.7576 84.3789 32.3761 83.9443 32.0215C83.7563 31.868 83.3597 31.5195 83 31.291C82.6044 31.0397 82.0735 30.8002 81.4111 30.7812L81.1191 30.7871C80.4702 30.8319 77.6521 31.0049 74.9814 31.167C73.6497 31.2478 72.3591 31.325 71.4014 31.3828C70.9227 31.4117 70.5269 31.4355 70.251 31.4521C70.113 31.4604 70.0042 31.4672 69.9307 31.4716C69.894 31.4739 69.8656 31.4754 69.8467 31.4765C69.8374 31.4771 69.8299 31.4782 69.8252 31.4785H69.8184L67.3496 31.6269L68.1416 33.9697L69.1992 37.0996H67.0469L62.0781 31.7021L61.5078 31.082L60.666 31.0918H60.6465C60.6331 31.0919 60.6126 31.0925 60.5859 31.0927C60.5326 31.0933 60.4532 31.0938 60.3496 31.0947C60.1419 31.0965 59.8367 31.0994 59.4502 31.1015C58.677 31.1059 57.5769 31.109 56.2715 31.1054C53.6579 31.0983 50.2309 31.0632 46.96 30.9511C43.8176 30.8435 41.6901 30.4614 40.2646 30.0752C39.9376 29.9865 39.646 29.8963 39.3838 29.8086C39.4359 29.7663 39.4899 29.7232 39.5449 29.6787C40.0755 29.2494 40.9744 28.8531 42.1768 28.5556C43.3458 28.2664 44.6444 28.1087 45.8311 28.0527C51.3808 27.7907 59.9579 28.0131 62.3838 28.0537C63.6234 28.0744 68.3914 28.2801 72.8975 28.4834C75.1398 28.5845 77.3029 28.6852 78.9053 28.7597C79.7063 28.797 80.3675 28.828 80.8281 28.8496C81.0583 28.8604 81.2387 28.8682 81.3613 28.874C81.4225 28.8769 81.4694 28.8793 81.501 28.8808C81.5167 28.8816 81.5291 28.8824 81.5371 28.8828H81.5488L82.4707 28.9267L83.0713 28.2265L89.0625 21.248L89.6426 21.249Z" stroke="#0F2A3D" stroke-opacity="0.4" stroke-width="3.77953"/>
<path d="M8.18774 13.314L9.88174 17.689C9.95174 17.8523 10.0241 17.9667 10.0987 18.032C10.1781 18.0973 10.2481 18.1323 10.3087 18.137V18.277C10.1594 18.2677 9.97974 18.263 9.76974 18.263C9.56441 18.2583 9.35441 18.256 9.13974 18.256C8.91574 18.256 8.70341 18.2583 8.50274 18.263C8.30207 18.263 8.14107 18.2677 8.01974 18.277V18.137C8.25774 18.1277 8.40941 18.088 8.47474 18.018C8.54007 17.9433 8.52607 17.787 8.43274 17.549L7.27074 14.371L7.41074 14.161L6.38874 16.8C6.28141 17.08 6.21607 17.3063 6.19274 17.479C6.16941 17.6517 6.18107 17.7847 6.22774 17.878C6.27441 17.9713 6.34674 18.0367 6.44474 18.074C6.54741 18.1113 6.66874 18.1323 6.80874 18.137V18.277C6.64541 18.2677 6.49374 18.263 6.35374 18.263C6.21841 18.2583 6.07141 18.256 5.91274 18.256C5.81941 18.256 5.72374 18.2583 5.62574 18.263C5.53241 18.263 5.45074 18.2677 5.38074 18.277V18.137C5.48341 18.1183 5.58607 18.053 5.68874 17.941C5.79607 17.829 5.90107 17.6353 6.00374 17.36L7.57874 13.314C7.67207 13.3233 7.77241 13.328 7.87974 13.328C7.99174 13.328 8.09441 13.3233 8.18774 13.314ZM8.55174 16.261V16.401H6.46574L6.53574 16.261H8.55174ZM12.5816 13.321C12.7076 13.3257 12.8756 13.3303 13.0856 13.335C13.2956 13.3397 13.5056 13.342 13.7156 13.342C13.9442 13.342 14.1636 13.3397 14.3736 13.335C14.5882 13.3303 14.7399 13.328 14.8286 13.328C15.4352 13.328 15.8879 13.4307 16.1866 13.636C16.4899 13.8413 16.6416 14.105 16.6416 14.427C16.6416 14.5903 16.5879 14.7583 16.4806 14.931C16.3732 15.099 16.2076 15.2507 15.9836 15.386C15.7642 15.5167 15.4819 15.6077 15.1366 15.659V15.673C15.5939 15.701 15.9579 15.7803 16.2286 15.911C16.5039 16.037 16.7022 16.1887 16.8236 16.366C16.9449 16.5433 17.0056 16.7277 17.0056 16.919C17.0056 17.2223 16.9239 17.4743 16.7606 17.675C16.6019 17.8757 16.3709 18.0273 16.0676 18.13C15.7689 18.228 15.4096 18.277 14.9896 18.277C14.8776 18.277 14.7142 18.2747 14.4996 18.27C14.2849 18.2607 14.0282 18.256 13.7296 18.256C13.5102 18.256 13.2956 18.2583 13.0856 18.263C12.8756 18.263 12.7076 18.2677 12.5816 18.277V18.137C12.7262 18.1277 12.8336 18.109 12.9036 18.081C12.9782 18.053 13.0272 17.997 13.0506 17.913C13.0786 17.829 13.0926 17.703 13.0926 17.535V14.063C13.0926 13.8903 13.0786 13.7643 13.0506 13.685C13.0272 13.601 12.9782 13.545 12.9036 13.517C12.8336 13.4843 12.7262 13.4657 12.5816 13.461V13.321ZM14.7656 13.461C14.5976 13.461 14.4879 13.5007 14.4366 13.58C14.3852 13.6593 14.3596 13.8203 14.3596 14.063V17.535C14.3596 17.6983 14.3712 17.822 14.3946 17.906C14.4226 17.99 14.4692 18.046 14.5346 18.074C14.5999 18.102 14.6979 18.116 14.8286 18.116C15.1272 18.116 15.3442 18.011 15.4796 17.801C15.6196 17.5863 15.6896 17.283 15.6896 16.891C15.6896 16.5317 15.6009 16.254 15.4236 16.058C15.2509 15.862 14.9616 15.764 14.5556 15.764H14.0026C14.0026 15.764 14.0026 15.7453 14.0026 15.708C14.0026 15.666 14.0026 15.645 14.0026 15.645H14.6046C14.8052 15.645 14.9592 15.5937 15.0666 15.491C15.1739 15.3837 15.2486 15.2437 15.2906 15.071C15.3326 14.8937 15.3536 14.7047 15.3536 14.504C15.3536 14.1587 15.3069 13.8997 15.2136 13.727C15.1249 13.5497 14.9756 13.461 14.7656 13.461ZM21.7831 13.321V13.461C21.6384 13.4657 21.5287 13.4843 21.4541 13.517C21.3841 13.545 21.3351 13.601 21.3071 13.685C21.2837 13.7643 21.2721 13.8903 21.2721 14.063V17.535C21.2721 17.703 21.2837 17.829 21.3071 17.913C21.3351 17.997 21.3841 18.053 21.4541 18.081C21.5287 18.109 21.6384 18.1277 21.7831 18.137V18.277C21.6524 18.2677 21.4844 18.263 21.2791 18.263C21.0784 18.2583 20.8754 18.256 20.6701 18.256C20.4321 18.256 20.2081 18.2583 19.9981 18.263C19.7881 18.263 19.6201 18.2677 19.4941 18.277V18.137C19.6387 18.1277 19.7461 18.109 19.8161 18.081C19.8907 18.053 19.9397 17.997 19.9631 17.913C19.9911 17.829 20.0051 17.703 20.0051 17.535V14.063C20.0051 13.8903 19.9911 13.7643 19.9631 13.685C19.9397 13.601 19.8907 13.545 19.8161 13.517C19.7461 13.4843 19.6387 13.4657 19.4941 13.461V13.321C19.6201 13.3257 19.7881 13.3303 19.9981 13.335C20.2081 13.3397 20.4321 13.342 20.6701 13.342C20.8754 13.342 21.0784 13.3397 21.2791 13.335C21.4844 13.3303 21.6524 13.3257 21.7831 13.321ZM23.2811 13.685C23.2811 13.685 23.2811 13.7107 23.2811 13.762C23.2811 13.8087 23.2811 13.8577 23.2811 13.909C23.2857 13.9603 23.2881 13.986 23.2881 13.986L21.1041 17.934L21.0201 17.766L23.2811 13.685ZM24.9051 13.321V13.461C24.7604 13.4657 24.6507 13.4843 24.5761 13.517C24.5061 13.545 24.4571 13.601 24.4291 13.685C24.4057 13.7643 24.3941 13.8903 24.3941 14.063V17.535C24.3941 17.703 24.4057 17.829 24.4291 17.913C24.4571 17.997 24.5061 18.053 24.5761 18.081C24.6507 18.109 24.7604 18.1277 24.9051 18.137V18.277C24.7791 18.2677 24.6111 18.263 24.4011 18.263C24.1911 18.2583 23.9671 18.256 23.7291 18.256C23.5237 18.256 23.3184 18.2583 23.1131 18.263C22.9124 18.263 22.7467 18.2677 22.6161 18.277V18.137C22.7561 18.1277 22.8634 18.109 22.9381 18.081C23.0127 18.053 23.0617 17.997 23.0851 17.913C23.1131 17.829 23.1271 17.703 23.1271 17.535V14.063C23.1271 13.8903 23.1131 13.7643 23.0851 13.685C23.0617 13.601 23.0127 13.545 22.9381 13.517C22.8634 13.4843 22.7561 13.4657 22.6161 13.461V13.321C22.7467 13.3257 22.9124 13.3303 23.1131 13.335C23.3184 13.3397 23.5237 13.342 23.7291 13.342C23.9671 13.342 24.1911 13.3397 24.4011 13.335C24.6111 13.3303 24.7791 13.3257 24.9051 13.321ZM29.9028 13.314L31.5968 17.689C31.6668 17.8523 31.7391 17.9667 31.8138 18.032C31.8931 18.0973 31.9631 18.1323 32.0238 18.137V18.277C31.8744 18.2677 31.6948 18.263 31.4848 18.263C31.2794 18.2583 31.0694 18.256 30.8548 18.256C30.6308 18.256 30.4184 18.2583 30.2178 18.263C30.0171 18.263 29.8561 18.2677 29.7348 18.277V18.137C29.9728 18.1277 30.1244 18.088 30.1898 18.018C30.2551 17.9433 30.2411 17.787 30.1478 17.549L28.9858 14.371L29.1258 14.161L28.1038 16.8C27.9964 17.08 27.9311 17.3063 27.9078 17.479C27.8844 17.6517 27.8961 17.7847 27.9428 17.878C27.9894 17.9713 28.0618 18.0367 28.1598 18.074C28.2624 18.1113 28.3838 18.1323 28.5238 18.137V18.277C28.3604 18.2677 28.2088 18.263 28.0688 18.263C27.9334 18.2583 27.7864 18.256 27.6278 18.256C27.5344 18.256 27.4388 18.2583 27.3408 18.263C27.2474 18.263 27.1658 18.2677 27.0958 18.277V18.137C27.1984 18.1183 27.3011 18.053 27.4038 17.941C27.5111 17.829 27.6161 17.6353 27.7188 17.36L29.2938 13.314C29.3871 13.3233 29.4874 13.328 29.5948 13.328C29.7068 13.328 29.8094 13.3233 29.9028 13.314ZM30.2668 16.261V16.401H28.1808L28.2508 16.261H30.2668ZM39.0076 13.321V13.461C38.8489 13.4657 38.7276 13.4843 38.6436 13.517C38.5643 13.545 38.5106 13.601 38.4826 13.685C38.4546 13.7643 38.4406 13.8903 38.4406 14.063V17.535C38.4406 17.703 38.4546 17.829 38.4826 17.913C38.5106 17.997 38.5643 18.053 38.6436 18.081C38.7276 18.109 38.8489 18.1277 39.0076 18.137V18.277C38.8769 18.2677 38.7019 18.263 38.4826 18.263C38.2633 18.2583 38.0323 18.256 37.7896 18.256C37.5563 18.256 37.3299 18.2583 37.1106 18.263C36.8959 18.263 36.7186 18.2677 36.5786 18.277V18.137C36.7466 18.1277 36.8726 18.109 36.9566 18.081C37.0453 18.053 37.1036 17.997 37.1316 17.913C37.1596 17.829 37.1736 17.703 37.1736 17.535V14.063C37.1736 13.8903 37.1573 13.762 37.1246 13.678C37.0966 13.594 37.0476 13.538 36.9776 13.51C36.9123 13.4773 36.8259 13.461 36.7186 13.461H36.6836C36.5949 13.461 36.5179 13.4773 36.4526 13.51C36.3873 13.538 36.3359 13.5963 36.2986 13.685C36.2659 13.769 36.2426 13.895 36.2286 14.063C36.2053 14.3383 36.1819 14.6347 36.1586 14.952C36.1399 15.2693 36.1143 15.589 36.0816 15.911C36.0536 16.233 36.0093 16.541 35.9486 16.835C35.8879 17.129 35.8086 17.3927 35.7106 17.626C35.6126 17.8547 35.4866 18.0367 35.3326 18.172C35.1786 18.3073 34.9896 18.375 34.7656 18.375C34.5369 18.375 34.3456 18.3097 34.1916 18.179C34.0376 18.0437 33.9606 17.8733 33.9606 17.668C33.9606 17.4673 34.0283 17.3063 34.1636 17.185C34.3036 17.0637 34.4716 17.003 34.6676 17.003C34.8403 17.003 34.9779 17.045 35.0806 17.129C35.1833 17.213 35.2346 17.3297 35.2346 17.479C35.2346 17.6657 35.1739 17.822 35.0526 17.948C34.9313 18.074 34.7796 18.1557 34.5976 18.193C34.6163 18.2117 34.6396 18.2257 34.6676 18.235C34.7003 18.2397 34.7329 18.242 34.7656 18.242C34.9803 18.242 35.1599 18.1603 35.3046 17.997C35.4493 17.8337 35.5659 17.612 35.6546 17.332C35.7479 17.0473 35.8203 16.7253 35.8716 16.366C35.9229 16.0067 35.9626 15.631 35.9906 15.239C36.0186 14.8423 36.0443 14.4503 36.0676 14.063C36.0816 13.8997 36.0746 13.776 36.0466 13.692C36.0233 13.608 35.9673 13.5497 35.8786 13.517C35.7946 13.4843 35.6686 13.4657 35.5006 13.461V13.321C35.5986 13.3257 35.7153 13.3303 35.8506 13.335C35.9859 13.3397 36.1096 13.342 36.2216 13.342C36.3289 13.342 36.4316 13.3397 36.5296 13.335C36.6323 13.3257 36.7349 13.321 36.8376 13.321C37.0149 13.321 37.1759 13.3257 37.3206 13.335C37.4653 13.3397 37.6379 13.342 37.8386 13.342C37.9693 13.342 38.1069 13.342 38.2516 13.342C38.4009 13.3373 38.5433 13.335 38.6786 13.335C38.8139 13.3303 38.9236 13.3257 39.0076 13.321ZM45.3389 13.321C45.3202 13.5403 45.3062 13.7527 45.2969 13.958C45.2922 14.1633 45.2899 14.3197 45.2899 14.427C45.2899 14.5203 45.2922 14.6113 45.2969 14.7C45.3015 14.7887 45.3062 14.861 45.3109 14.917H45.1499C45.0985 14.553 45.0145 14.266 44.8979 14.056C44.7859 13.846 44.6459 13.699 44.4779 13.615C44.3145 13.5263 44.1325 13.482 43.9319 13.482H43.7429C43.6169 13.482 43.5189 13.4937 43.4489 13.517C43.3835 13.5357 43.3392 13.5777 43.3159 13.643C43.2972 13.7083 43.2879 13.811 43.2879 13.951V17.647C43.2879 17.7823 43.2972 17.885 43.3159 17.955C43.3392 18.0203 43.3835 18.0647 43.4489 18.088C43.5189 18.1067 43.6169 18.116 43.7429 18.116H44.0299C44.2119 18.116 44.3845 18.0693 44.5479 17.976C44.7159 17.878 44.8652 17.7147 44.9959 17.486C45.1265 17.2527 45.2245 16.9377 45.2899 16.541H45.4509C45.4369 16.6997 45.4299 16.905 45.4299 17.157C45.4299 17.269 45.4322 17.4277 45.4369 17.633C45.4415 17.8383 45.4555 18.053 45.4789 18.277C45.2409 18.2677 44.9725 18.263 44.6739 18.263C44.3752 18.2583 44.1092 18.256 43.8759 18.256C43.7545 18.256 43.6005 18.256 43.4139 18.256C43.2272 18.256 43.0242 18.2583 42.8049 18.263C42.5855 18.263 42.3639 18.2653 42.1399 18.27C41.9159 18.27 41.7059 18.2723 41.5099 18.277V18.137C41.6545 18.1277 41.7619 18.109 41.8319 18.081C41.9065 18.053 41.9555 17.997 41.9789 17.913C42.0069 17.829 42.0209 17.703 42.0209 17.535V14.063C42.0209 13.8903 42.0069 13.7643 41.9789 13.685C41.9555 13.601 41.9065 13.545 41.8319 13.517C41.7619 13.4843 41.6545 13.4657 41.5099 13.461V13.321C41.7105 13.3257 41.9205 13.3303 42.1399 13.335C42.3639 13.335 42.5832 13.3373 42.7979 13.342C43.0172 13.342 43.2202 13.342 43.4069 13.342C43.5982 13.342 43.7545 13.342 43.8759 13.342C44.0905 13.342 44.3332 13.342 44.6039 13.342C44.8792 13.3373 45.1242 13.3303 45.3389 13.321ZM44.2819 15.715C44.2819 15.715 44.2819 15.7383 44.2819 15.785C44.2819 15.8317 44.2819 15.855 44.2819 15.855H43.0779C43.0779 15.855 43.0779 15.8317 43.0779 15.785C43.0779 15.7383 43.0779 15.715 43.0779 15.715H44.2819ZM44.4849 14.791C44.4662 15.057 44.4569 15.26 44.4569 15.4C44.4615 15.54 44.4639 15.6683 44.4639 15.785C44.4639 15.9017 44.4662 16.03 44.4709 16.17C44.4755 16.31 44.4872 16.513 44.5059 16.779H44.3449C44.3215 16.611 44.2725 16.457 44.1979 16.317C44.1232 16.177 44.0229 16.065 43.8969 15.981C43.7709 15.897 43.6169 15.855 43.4349 15.855V15.715C43.5702 15.715 43.6892 15.687 43.7919 15.631C43.8945 15.5703 43.9809 15.4933 44.0509 15.4C44.1255 15.3067 44.1862 15.2063 44.2329 15.099C44.2795 14.9917 44.3099 14.889 44.3239 14.791H44.4849ZM50.7191 13.223C51.0271 13.223 51.2791 13.2697 51.4751 13.363C51.6757 13.4517 51.8531 13.5567 52.0071 13.678C52.1004 13.748 52.1704 13.7573 52.2171 13.706C52.2684 13.65 52.3034 13.5217 52.3221 13.321H52.4831C52.4737 13.503 52.4667 13.727 52.4621 13.993C52.4574 14.259 52.4551 14.609 52.4551 15.043H52.2941C52.2754 14.8237 52.2451 14.6323 52.2031 14.469C52.1657 14.3057 52.1097 14.161 52.0351 14.035C51.9604 13.909 51.8531 13.797 51.7131 13.699C51.6057 13.6103 51.4844 13.5427 51.3491 13.496C51.2184 13.4447 51.0831 13.419 50.9431 13.419C50.6864 13.419 50.4694 13.4913 50.2921 13.636C50.1194 13.776 49.9794 13.9627 49.8721 14.196C49.7694 14.4247 49.6947 14.6813 49.6481 14.966C49.6061 15.246 49.5851 15.5283 49.5851 15.813C49.5851 16.1023 49.6084 16.3893 49.6551 16.674C49.7017 16.954 49.7764 17.2083 49.8791 17.437C49.9864 17.6657 50.1287 17.85 50.3061 17.99C50.4834 18.1253 50.7004 18.193 50.9571 18.193C51.0924 18.193 51.2254 18.1697 51.3561 18.123C51.4914 18.0763 51.6127 18.0087 51.7201 17.92C51.9254 17.78 52.0631 17.598 52.1331 17.374C52.2077 17.1453 52.2614 16.849 52.2941 16.485H52.4551C52.4551 16.9377 52.4574 17.304 52.4621 17.584C52.4667 17.8593 52.4737 18.0903 52.4831 18.277H52.3221C52.3034 18.0763 52.2707 17.9503 52.2241 17.899C52.1821 17.8477 52.1097 17.8547 52.0071 17.92C51.8344 18.0413 51.6501 18.1487 51.4541 18.242C51.2627 18.3307 51.0154 18.375 50.7121 18.375C50.2034 18.375 49.7554 18.2747 49.3681 18.074C48.9854 17.8733 48.6867 17.584 48.4721 17.206C48.2621 16.828 48.1571 16.373 48.1571 15.841C48.1571 15.3183 48.2667 14.861 48.4861 14.469C48.7054 14.077 49.0064 13.7713 49.3891 13.552C49.7764 13.3327 50.2197 13.223 50.7191 13.223ZM57.7956 13.223C58.309 13.223 58.757 13.3233 59.1396 13.524C59.5223 13.7247 59.8186 14.014 60.0286 14.392C60.2433 14.7653 60.3506 15.2203 60.3506 15.757C60.3506 16.2797 60.241 16.737 60.0216 17.129C59.807 17.521 59.506 17.8267 59.1186 18.046C58.7313 18.2653 58.288 18.375 57.7886 18.375C57.28 18.375 56.832 18.2747 56.4446 18.074C56.062 17.8733 55.7633 17.584 55.5486 17.206C55.3386 16.828 55.2336 16.373 55.2336 15.841C55.2336 15.3183 55.3433 14.861 55.5626 14.469C55.7866 14.077 56.09 13.7713 56.4726 13.552C56.8553 13.3327 57.2963 13.223 57.7956 13.223ZM57.7676 13.349C57.5203 13.349 57.3056 13.454 57.1236 13.664C56.9416 13.874 56.7993 14.1633 56.6966 14.532C56.5986 14.9007 56.5496 15.3277 56.5496 15.813C56.5496 16.3077 56.6056 16.7393 56.7176 17.108C56.8343 17.472 56.9883 17.7543 57.1796 17.955C57.371 18.151 57.5833 18.249 57.8166 18.249C58.064 18.249 58.2786 18.144 58.4606 17.934C58.6473 17.724 58.7896 17.4347 58.8876 17.066C58.9856 16.6927 59.0346 16.2657 59.0346 15.785C59.0346 15.2857 58.9786 14.854 58.8666 14.49C58.7546 14.126 58.6006 13.846 58.4046 13.65C58.2133 13.4493 58.001 13.349 57.7676 13.349ZM65.5626 13.223C66.076 13.223 66.524 13.3233 66.9066 13.524C67.2893 13.7247 67.5856 14.014 67.7956 14.392C68.0103 14.7653 68.1176 15.2203 68.1176 15.757C68.1176 16.2797 68.008 16.737 67.7886 17.129C67.574 17.521 67.273 17.8267 66.8856 18.046C66.4983 18.2653 66.055 18.375 65.5556 18.375C65.047 18.375 64.599 18.2747 64.2116 18.074C63.829 17.8733 63.5303 17.584 63.3156 17.206C63.1056 16.828 63.0006 16.373 63.0006 15.841C63.0006 15.3183 63.1103 14.861 63.3296 14.469C63.5536 14.077 63.857 13.7713 64.2396 13.552C64.6223 13.3327 65.0633 13.223 65.5626 13.223ZM65.5346 13.349C65.2873 13.349 65.0726 13.454 64.8906 13.664C64.7086 13.874 64.5663 14.1633 64.4636 14.532C64.3656 14.9007 64.3166 15.3277 64.3166 15.813C64.3166 16.3077 64.3726 16.7393 64.4846 17.108C64.6013 17.472 64.7553 17.7543 64.9466 17.955C65.138 18.151 65.3503 18.249 65.5836 18.249C65.831 18.249 66.0456 18.144 66.2276 17.934C66.4143 17.724 66.5566 17.4347 66.6546 17.066C66.7526 16.6927 66.8016 16.2657 66.8016 15.785C66.8016 15.2857 66.7456 14.854 66.6336 14.49C66.5216 14.126 66.3676 13.846 66.1716 13.65C65.9803 13.4493 65.768 13.349 65.5346 13.349ZM72.4882 13.314V13.461C72.2829 13.461 72.1499 13.4797 72.0892 13.517C72.0285 13.5543 72.0309 13.6197 72.0962 13.713L74.9242 17.78C75.0129 17.9107 75.0852 17.9993 75.1412 18.046C75.1972 18.0927 75.2719 18.1207 75.3652 18.13V18.277C75.2579 18.2723 75.1039 18.2677 74.9032 18.263C74.7025 18.2537 74.4972 18.249 74.2872 18.249C74.0632 18.249 73.8392 18.2537 73.6152 18.263C73.3912 18.2677 73.2232 18.2723 73.1112 18.277V18.13C73.3165 18.13 73.4495 18.1137 73.5102 18.081C73.5755 18.0483 73.5755 17.9853 73.5102 17.892L70.6962 13.811C70.6029 13.6757 70.5282 13.5847 70.4722 13.538C70.4209 13.4913 70.3485 13.4657 70.2552 13.461V13.314C70.3625 13.3187 70.5235 13.3257 70.7382 13.335C70.9529 13.3397 71.1699 13.342 71.3892 13.342C71.5992 13.342 71.8069 13.3397 72.0122 13.335C72.2175 13.3257 72.3762 13.3187 72.4882 13.314ZM72.4392 15.806C72.4392 15.806 72.4439 15.8223 72.4532 15.855C72.4625 15.883 72.4719 15.9133 72.4812 15.946C72.4905 15.974 72.4952 15.988 72.4952 15.988L71.8442 16.842C71.6529 17.0893 71.5409 17.3087 71.5082 17.5C71.4802 17.6913 71.5175 17.843 71.6202 17.955C71.7275 18.0623 71.8862 18.123 72.0962 18.137V18.277C72.0309 18.2723 71.9445 18.27 71.8372 18.27C71.7299 18.2653 71.6179 18.263 71.5012 18.263C71.3845 18.2583 71.2749 18.256 71.1722 18.256C71.0695 18.256 70.9902 18.256 70.9342 18.256C70.7942 18.256 70.6682 18.2583 70.5562 18.263C70.4442 18.263 70.3509 18.2677 70.2762 18.277V18.137C70.4442 18.0717 70.6192 17.962 70.8012 17.808C70.9832 17.654 71.1699 17.4557 71.3612 17.213L72.4392 15.806ZM74.9942 13.321V13.461C74.8355 13.5123 74.6745 13.6103 74.5112 13.755C74.3525 13.8997 74.2079 14.056 74.0772 14.224L72.9362 15.68C72.9362 15.68 72.9269 15.652 72.9082 15.596C72.8942 15.5353 72.8872 15.505 72.8872 15.505L73.5802 14.602C73.7622 14.3827 73.8719 14.1913 73.9092 14.028C73.9465 13.86 73.9209 13.727 73.8322 13.629C73.7482 13.531 73.6129 13.475 73.4262 13.461V13.321C73.5149 13.3257 73.6152 13.3303 73.7272 13.335C73.8392 13.335 73.9489 13.3373 74.0562 13.342C74.1635 13.342 74.2545 13.342 74.3292 13.342C74.4692 13.342 74.5952 13.3397 74.7072 13.335C74.8239 13.3303 74.9195 13.3257 74.9942 13.321ZM77.5489 13.321C77.6749 13.3257 77.8429 13.3303 78.0529 13.335C78.2629 13.3397 78.4729 13.342 78.6829 13.342C78.9116 13.342 79.1309 13.3397 79.3409 13.335C79.5556 13.3303 79.7073 13.328 79.7959 13.328C80.4773 13.328 80.9836 13.4563 81.3149 13.713C81.6509 13.9697 81.8189 14.301 81.8189 14.707C81.8189 14.875 81.7839 15.0523 81.7139 15.239C81.6486 15.421 81.5343 15.5913 81.3709 15.75C81.2123 15.904 80.9906 16.03 80.7059 16.128C80.4259 16.226 80.0713 16.275 79.6419 16.275H78.9139V16.135H79.5719C79.8286 16.135 80.0223 16.072 80.1529 15.946C80.2883 15.82 80.3793 15.6543 80.4259 15.449C80.4773 15.2437 80.5029 15.022 80.5029 14.784C80.5029 14.3407 80.4446 14.0093 80.3279 13.79C80.2113 13.5707 80.0129 13.461 79.7329 13.461C79.5603 13.461 79.4483 13.5007 79.3969 13.58C79.3503 13.6593 79.3269 13.8203 79.3269 14.063V17.479C79.3269 17.6657 79.3456 17.8057 79.3829 17.899C79.4203 17.9877 79.4949 18.046 79.6069 18.074C79.7189 18.102 79.8799 18.1183 80.0899 18.123V18.277C79.9359 18.2723 79.7376 18.2677 79.4949 18.263C79.2523 18.2583 78.9979 18.256 78.7319 18.256C78.5219 18.256 78.3143 18.2583 78.1089 18.263C77.9083 18.2677 77.7216 18.2723 77.5489 18.277V18.137C77.6936 18.1277 77.8009 18.109 77.8709 18.081C77.9456 18.053 77.9946 17.997 78.0179 17.913C78.0459 17.829 78.0599 17.703 78.0599 17.535V14.063C78.0599 13.8903 78.0459 13.7643 78.0179 13.685C77.9946 13.601 77.9456 13.545 77.8709 13.517C77.8009 13.4843 77.6936 13.4657 77.5489 13.461V13.321ZM86.2965 13.314L87.9905 17.689C88.0605 17.8523 88.1329 17.9667 88.2075 18.032C88.2869 18.0973 88.3569 18.1323 88.4175 18.137V18.277C88.2682 18.2677 88.0885 18.263 87.8785 18.263C87.6732 18.2583 87.4632 18.256 87.2485 18.256C87.0245 18.256 86.8122 18.2583 86.6115 18.263C86.4109 18.263 86.2499 18.2677 86.1285 18.277V18.137C86.3665 18.1277 86.5182 18.088 86.5835 18.018C86.6489 17.9433 86.6349 17.787 86.5415 17.549L85.3795 14.371L85.5195 14.161L84.4975 16.8C84.3902 17.08 84.3249 17.3063 84.3015 17.479C84.2782 17.6517 84.2899 17.7847 84.3365 17.878C84.3832 17.9713 84.4555 18.0367 84.5535 18.074C84.6562 18.1113 84.7775 18.1323 84.9175 18.137V18.277C84.7542 18.2677 84.6025 18.263 84.4625 18.263C84.3272 18.2583 84.1802 18.256 84.0215 18.256C83.9282 18.256 83.8325 18.2583 83.7345 18.263C83.6412 18.263 83.5595 18.2677 83.4895 18.277V18.137C83.5922 18.1183 83.6949 18.053 83.7975 17.941C83.9049 17.829 84.0099 17.6353 84.1125 17.36L85.6875 13.314C85.7809 13.3233 85.8812 13.328 85.9885 13.328C86.1005 13.328 86.2032 13.3233 86.2965 13.314ZM86.6605 16.261V16.401H84.5745L84.6445 16.261H86.6605ZM93.6723 18.277V18.137C93.817 18.1277 93.9243 18.109 93.9943 18.081C94.069 18.053 94.118 17.997 94.1413 17.913C94.1693 17.829 94.1833 17.703 94.1833 17.535V14.063C94.1833 13.8903 94.1693 13.7643 94.1413 13.685C94.118 13.601 94.069 13.545 93.9943 13.517C93.9243 13.4843 93.817 13.4657 93.6723 13.461V13.321C93.8077 13.3257 93.9827 13.3303 94.1973 13.335C94.412 13.3397 94.6267 13.342 94.8413 13.342C95.07 13.342 95.2823 13.3397 95.4783 13.335C95.679 13.3303 95.84 13.3257 95.9613 13.321V13.461C95.8167 13.4657 95.707 13.4843 95.6323 13.517C95.5577 13.545 95.5087 13.601 95.4853 13.685C95.462 13.7643 95.4503 13.8903 95.4503 14.063V17.535C95.4503 17.703 95.462 17.829 95.4853 17.913C95.5133 17.997 95.5623 18.053 95.6323 18.081C95.707 18.109 95.8167 18.1277 95.9613 18.137V18.277C95.84 18.2677 95.679 18.263 95.4783 18.263C95.2823 18.2583 95.07 18.256 94.8413 18.256C94.6267 18.256 94.412 18.2583 94.1973 18.263C93.9827 18.263 93.8077 18.2677 93.6723 18.277ZM90.6903 18.277V18.137C90.835 18.1277 90.9423 18.109 91.0123 18.081C91.087 18.053 91.136 17.997 91.1593 17.913C91.1873 17.829 91.2013 17.703 91.2013 17.535V14.063C91.2013 13.8903 91.1873 13.7643 91.1593 13.685C91.136 13.601 91.087 13.545 91.0123 13.517C90.9423 13.4843 90.835 13.4657 90.6903 13.461V13.321C90.8163 13.3257 90.9843 13.3303 91.1943 13.335C91.4043 13.3397 91.6283 13.342 91.8663 13.342C92.0717 13.342 92.2747 13.3397 92.4753 13.335C92.6807 13.3303 92.8487 13.3257 92.9793 13.321V13.461C92.8347 13.4657 92.725 13.4843 92.6503 13.517C92.5757 13.545 92.5267 13.601 92.5033 13.685C92.48 13.7643 92.4683 13.8903 92.4683 14.063V17.535C92.4683 17.703 92.48 17.829 92.5033 17.913C92.5313 17.997 92.5803 18.053 92.6503 18.081C92.725 18.109 92.8347 18.1277 92.9793 18.137V18.277C92.8487 18.2677 92.6807 18.263 92.4753 18.263C92.2747 18.2583 92.0717 18.256 91.8663 18.256C91.6283 18.256 91.4043 18.2583 91.1943 18.263C90.9843 18.263 90.8163 18.2677 90.6903 18.277ZM91.9433 15.855V15.715H94.7083V15.855H91.9433ZM100.962 13.314L102.656 17.689C102.726 17.8523 102.799 17.9667 102.873 18.032C102.953 18.0973 103.023 18.1323 103.083 18.137V18.277C102.934 18.2677 102.754 18.263 102.544 18.263C102.339 18.2583 102.129 18.256 101.914 18.256C101.69 18.256 101.478 18.2583 101.277 18.263C101.077 18.263 100.916 18.2677 100.794 18.277V18.137C101.032 18.1277 101.184 18.088 101.249 18.018C101.315 17.9433 101.301 17.787 101.207 17.549L100.045 14.371L100.185 14.161L99.1633 16.8C99.056 17.08 98.9907 17.3063 98.9673 17.479C98.944 17.6517 98.9557 17.7847 99.0023 17.878C99.049 17.9713 99.1213 18.0367 99.2193 18.074C99.322 18.1113 99.4433 18.1323 99.5833 18.137V18.277C99.42 18.2677 99.2683 18.263 99.1283 18.263C98.993 18.2583 98.846 18.256 98.6873 18.256C98.594 18.256 98.4983 18.2583 98.4003 18.263C98.307 18.263 98.2253 18.2677 98.1553 18.277V18.137C98.258 18.1183 98.3607 18.053 98.4633 17.941C98.5707 17.829 98.6757 17.6353 98.7783 17.36L100.353 13.314C100.447 13.3233 100.547 13.328 100.654 13.328C100.766 13.328 100.869 13.3233 100.962 13.314ZM101.326 16.261V16.401H99.2403L99.3103 16.261H101.326Z" fill="#0F2A3D"/>
</svg>
